<svg id="Layer_1" data-name="Layer 1" xmlns="http://www.w3.org/2000/svg" xmlns:xlink="http://www.w3.org/1999/xlink" viewBox="0 0 533.06 138.71"><defs><style>.cls-1{fill:none;}.cls-2{clip-path:url(#clip-path);}.cls-3{fill:#fff;}.cls-4{fill:#fefeff;}.cls-5{fill:#fdfefe;}.cls-6{fill:#fcfdfe;}.cls-7{fill:#fbfdfe;}.cls-8{fill:#fafcfe;}.cls-9{fill:#f9fbfd;}.cls-10{fill:#f8fbfd;}.cls-11{fill:#f7fafd;}.cls-12{fill:#f6fafc;}.cls-13{fill:#f5f9fc;}.cls-14{fill:#f4f8fc;}.cls-15{fill:#f3f8fb;}.cls-16{fill:#f2f7fb;}.cls-17{fill:#f1f6fb;}.cls-18{fill:#f0f6fb;}.cls-19{fill:#eff5fa;}.cls-20{fill:#eef5fa;}.cls-21{fill:#edf4fa;}.cls-22{fill:#ecf3f9;}.cls-23{fill:#ebf3f9;}.cls-24{fill:#eaf2f9;}.cls-25{fill:#e9f2f9;}.cls-26{fill:#e8f1f8;}.cls-27{fill:#e7f0f8;}.cls-28{fill:#e6f0f8;}.cls-29{fill:#e5eff7;}.cls-30{fill:#e4eff7;}.cls-31{fill:#e3eef7;}.cls-32{fill:#e2edf6;}.cls-33{fill:#e1edf6;}.cls-34{fill:#e0ecf6;}.cls-35{fill:#dfecf6;}.cls-36{fill:#deebf5;}.cls-37{fill:#ddeaf5;}.cls-38{fill:#dceaf5;}.cls-39{fill:#dbe9f4;}.cls-40{fill:#dae9f4;}.cls-41{fill:#d9e8f4;}.cls-42{fill:#d8e7f3;}.cls-43{fill:#d7e7f3;}.cls-44{fill:#d6e6f3;}.cls-45{fill:#d5e5f3;}.cls-46{fill:#d4e5f2;}.cls-47{fill:#d3e4f2;}.cls-48{fill:#d2e4f2;}.cls-49{fill:#d1e3f1;}.cls-50{fill:#d0e2f1;}.cls-51{fill:#cfe2f1;}.cls-52{fill:#cee1f1;}.cls-53{fill:#cde1f0;}.cls-54{fill:#cce0f0;}.cls-55{fill:#cbdff0;}.cls-56{fill:#cadfef;}.cls-57{fill:#c9deef;}.cls-58{fill:#c8deef;}.cls-59{fill:#c7ddee;}.cls-60{fill:#c6dcee;}.cls-61{fill:#c5dcee;}.cls-62{fill:#c4dbee;}.cls-63{fill:#c3dbed;}.cls-64{fill:#c2daed;}.cls-65{fill:#c1d9ed;}.cls-66{fill:#c0d9ec;}.cls-67{fill:#bfd8ec;}.cls-68{fill:#bed7ec;}.cls-69{fill:#bdd7ec;}.cls-70{fill:#bcd6eb;}.cls-71{fill:#bbd6eb;}.cls-72{fill:#bad5eb;}.cls-73{fill:#b9d4ea;}.cls-74{fill:#b8d4ea;}.cls-75{fill:#b7d3ea;}.cls-76{fill:#b6d3e9;}.cls-77{fill:#b5d2e9;}.cls-78{fill:#b4d1e9;}.cls-79{fill:#b3d1e9;}.cls-80{fill:#b2d0e8;}.cls-81{fill:#b1d0e8;}.cls-82{fill:#b0cfe8;}.cls-83{fill:#afcee7;}.cls-84{fill:#aecee7;}.cls-85{fill:#adcde7;}.cls-86{fill:#accde7;}.cls-87{fill:#abcce6;}.cls-88{fill:#aacbe6;}.cls-89{fill:#a9cbe6;}.cls-90{fill:#a8cae5;}.cls-91{fill:#a7cae5;}.cls-92{fill:#a6c9e5;}.cls-93{fill:#a5c8e4;}.cls-94{fill:#a4c8e4;}.cls-95{fill:#a3c7e4;}.cls-96{fill:#a2c6e4;}.cls-97{fill:#a1c6e3;}.cls-98{fill:#a0c5e3;}.cls-99{fill:#9fc5e3;}.cls-100{fill:#9ec4e2;}.cls-101{fill:#9dc3e2;}.cls-102{fill:#9cc3e2;}.cls-103{fill:#9bc2e1;}.cls-104{fill:#9ac2e1;}.cls-105{fill:#99c1e1;}.cls-106{fill:#98c0e1;}.cls-107{fill:#97c0e0;}.cls-108{fill:#96bfe0;}.cls-109{fill:#95bfe0;}.cls-110{fill:#94bedf;}.cls-111{fill:#93bddf;}.cls-112{fill:#92bddf;}.cls-113{fill:#91bcdf;}.cls-114{fill:#90bcde;}.cls-115{fill:#8fbbde;}.cls-116{fill:#8ebade;}.cls-117{fill:#8cbadd;}.cls-118{fill:#8bb9dd;}.cls-119{fill:#8ab8dd;}.cls-120{fill:#89b8dc;}.cls-121{fill:#88b7dc;}.cls-122{fill:#87b7dc;}.cls-123{fill:#86b6dc;}.cls-124{fill:#85b5db;}.cls-125{fill:#84b5db;}.cls-126{fill:#83b4db;}.cls-127{fill:#82b4da;}.cls-128{fill:#81b3da;}.cls-129{fill:#80b2da;}.cls-130{fill:#7fb2da;}.cls-131{fill:#7eb1d9;}.cls-132{fill:#7db1d9;}.cls-133{fill:#7cb0d9;}.cls-134{fill:#7bafd8;}.cls-135{fill:#7aafd8;}.cls-136{fill:#79aed8;}.cls-137{fill:#78aed7;}.cls-138{fill:#77add7;}.cls-139{fill:#76acd7;}.cls-140{fill:#75acd7;}.cls-141{fill:#74abd6;}.cls-142{fill:#73aad6;}.cls-143{fill:#72aad6;}.cls-144{fill:#71a9d5;}.cls-145{fill:#70a9d5;}.cls-146{fill:#6fa8d5;}.cls-147{fill:#6ea7d4;}.cls-148{fill:#6da7d4;}.cls-149{fill:#6ca6d4;}.cls-150{fill:#6ba6d4;}.cls-151{fill:#6aa5d3;}.cls-152{fill:#69a4d3;}.cls-153{fill:#68a4d3;}.cls-154{fill:#67a3d2;}.cls-155{fill:#66a3d2;}.cls-156{fill:#65a2d2;}.cls-157{fill:#64a1d2;}.cls-158{fill:#63a1d1;}.cls-159{fill:#62a0d1;}.cls-160{fill:#61a0d1;}.cls-161{fill:#609fd0;}.cls-162{fill:#5f9ed0;}.cls-163{fill:#5e9ed0;}.cls-164{fill:#5d9dcf;}.cls-165{fill:#5c9dcf;}.cls-166{fill:#5b9ccf;}.cls-167{fill:#5a9bcf;}.cls-168{fill:#599bce;}.cls-169{fill:#589ace;}.cls-170{fill:#5799ce;}.cls-171{fill:#5699cd;}.cls-172{fill:#5598cd;}.cls-173{fill:#5498cd;}.cls-174{fill:#5397cd;}.cls-175{fill:#5296cc;}.cls-176{fill:#5196cc;}.cls-177{fill:#5095cc;}.cls-178{fill:#4f95cb;}.cls-179{fill:#4e94cb;}.cls-180{fill:#4d93cb;}.cls-181{fill:#4c93ca;}.cls-182{fill:#4b92ca;}.cls-183{fill:#4a92ca;}.cls-184{fill:#4991ca;}.cls-185{fill:#4890c9;}.cls-186{fill:#4790c9;}.cls-187{fill:#468fc9;}.cls-188{fill:#458fc8;}.cls-189{fill:#448ec8;}.cls-190{fill:#438dc8;}.cls-191{fill:#428dc8;}.cls-192{fill:#418cc7;}.cls-193{fill:#408bc7;}.cls-194{fill:#3f8bc7;}.cls-195{fill:#3e8ac6;}.cls-196{fill:#3d8ac6;}.cls-197{fill:#3c89c6;}.cls-198{fill:#3b88c5;}.cls-199{fill:#3a88c5;}.cls-200{fill:#3987c5;}.cls-201{fill:#3887c5;}.cls-202{fill:#3786c4;}.cls-203{fill:#3685c4;}.cls-204{fill:#3585c4;}.cls-205{fill:#3484c3;}.cls-206{fill:#3384c3;}.cls-207{fill:#3283c3;}.cls-208{fill:#3182c2;}.cls-209{fill:#3082c2;}.cls-210{fill:#2f81c2;}.cls-211{fill:#2e81c2;}</style><clipPath id="clip-path" transform="translate(-39.02 -7.52)"><path class="cls-1" d="M78.94,100.24H60.31L39,37.9H55.91L69.8,73.59H70l33.1-66.07h6.17Z"/></clipPath></defs><title>vesta__logo</title><g class="cls-2"><rect class="cls-3" y="92.06" width="70.22" height="0.67"/><rect class="cls-3" y="91.62" width="70.22" height="0.44"/><rect class="cls-4" y="91.18" width="70.22" height="0.44"/><rect class="cls-5" y="90.74" width="70.22" height="0.44"/><rect class="cls-6" y="90.3" width="70.22" height="0.44"/><rect class="cls-7" y="89.85" width="70.22" height="0.44"/><rect class="cls-8" y="89.41" width="70.22" height="0.44"/><rect class="cls-9" y="88.97" width="70.22" height="0.44"/><rect class="cls-10" y="88.53" width="70.22" height="0.44"/><rect class="cls-11" y="88.09" width="70.22" height="0.44"/><rect class="cls-12" y="87.65" width="70.22" height="0.44"/><rect class="cls-13" y="87.21" width="70.22" height="0.44"/><rect class="cls-14" y="86.77" width="70.22" height="0.44"/><rect class="cls-15" y="86.33" width="70.22" height="0.44"/><rect class="cls-16" y="85.89" width="70.22" height="0.44"/><rect class="cls-17" y="85.45" width="70.22" height="0.44"/><rect class="cls-18" y="85.01" width="70.22" height="0.44"/><rect class="cls-19" y="84.56" width="70.22" height="0.44"/><rect class="cls-20" y="84.12" width="70.22" height="0.44"/><rect class="cls-21" y="83.68" width="70.22" height="0.44"/><rect class="cls-22" y="83.24" width="70.22" height="0.44"/><rect class="cls-23" y="82.8" width="70.22" height="0.44"/><rect class="cls-24" y="82.36" width="70.22" height="0.44"/><rect class="cls-25" y="81.92" width="70.22" height="0.44"/><rect class="cls-26" y="81.48" width="70.22" height="0.44"/><rect class="cls-27" y="81.04" width="70.22" height="0.44"/><rect class="cls-28" y="80.6" width="70.22" height="0.44"/><rect class="cls-29" y="80.16" width="70.22" height="0.44"/><rect class="cls-30" y="79.72" width="70.22" height="0.44"/><rect class="cls-31" y="79.27" width="70.22" height="0.44"/><rect class="cls-32" y="78.83" width="70.22" height="0.44"/><rect class="cls-33" y="78.39" width="70.22" height="0.44"/><rect class="cls-34" y="77.95" width="70.22" height="0.44"/><rect class="cls-35" y="77.51" width="70.22" height="0.44"/><rect class="cls-36" y="77.07" width="70.22" height="0.44"/><rect class="cls-37" y="76.63" width="70.22" height="0.44"/><rect class="cls-38" y="76.19" width="70.22" height="0.44"/><rect class="cls-39" y="75.75" width="70.22" height="0.44"/><rect class="cls-40" y="75.31" width="70.22" height="0.44"/><rect class="cls-41" y="74.87" width="70.22" height="0.44"/><rect class="cls-42" y="74.43" width="70.22" height="0.44"/><rect class="cls-43" y="73.98" width="70.22" height="0.44"/><rect class="cls-44" y="73.54" width="70.22" height="0.44"/><rect class="cls-45" y="73.1" width="70.22" height="0.44"/><rect class="cls-46" y="72.66" width="70.22" height="0.44"/><rect class="cls-47" y="72.22" width="70.22" height="0.44"/><rect class="cls-48" y="71.78" width="70.22" height="0.44"/><rect class="cls-49" y="71.34" width="70.22" height="0.44"/><rect class="cls-50" y="70.9" width="70.22" height="0.44"/><rect class="cls-51" y="70.46" width="70.22" height="0.44"/><rect class="cls-52" y="70.02" width="70.22" height="0.44"/><rect class="cls-53" y="69.58" width="70.22" height="0.44"/><rect class="cls-54" y="69.14" width="70.22" height="0.44"/><rect class="cls-55" y="68.69" width="70.22" height="0.44"/><rect class="cls-56" y="68.25" width="70.22" height="0.44"/><rect class="cls-57" y="67.81" width="70.22" height="0.44"/><rect class="cls-58" y="67.37" width="70.22" height="0.44"/><rect class="cls-59" y="66.93" width="70.22" height="0.44"/><rect class="cls-60" y="66.49" width="70.22" height="0.44"/><rect class="cls-61" y="66.05" width="70.22" height="0.44"/><rect class="cls-62" y="65.61" width="70.22" height="0.44"/><rect class="cls-63" y="65.17" width="70.22" height="0.44"/><rect class="cls-64" y="64.73" width="70.22" height="0.44"/><rect class="cls-65" y="64.29" width="70.22" height="0.44"/><rect class="cls-66" y="63.85" width="70.22" height="0.44"/><rect class="cls-67" y="63.4" width="70.22" height="0.44"/><rect class="cls-68" y="62.96" width="70.22" height="0.44"/><rect class="cls-69" y="62.52" width="70.22" height="0.44"/><rect class="cls-70" y="62.08" width="70.22" height="0.44"/><rect class="cls-71" y="61.64" width="70.22" height="0.44"/><rect class="cls-72" y="61.2" width="70.22" height="0.44"/><rect class="cls-73" y="60.76" width="70.22" height="0.44"/><rect class="cls-74" y="60.32" width="70.22" height="0.44"/><rect class="cls-75" y="59.88" width="70.22" height="0.44"/><rect class="cls-76" y="59.44" width="70.22" height="0.44"/><rect class="cls-77" y="59" width="70.22" height="0.44"/><rect class="cls-78" y="58.56" width="70.22" height="0.44"/><rect class="cls-79" y="58.11" width="70.22" height="0.44"/><rect class="cls-80" y="57.67" width="70.22" height="0.44"/><rect class="cls-81" y="57.23" width="70.22" height="0.44"/><rect class="cls-82" y="56.79" width="70.22" height="0.44"/><rect class="cls-83" y="56.35" width="70.22" height="0.44"/><rect class="cls-84" y="55.91" width="70.22" height="0.44"/><rect class="cls-85" y="55.47" width="70.22" height="0.44"/><rect class="cls-86" y="55.03" width="70.22" height="0.44"/><rect class="cls-87" y="54.59" width="70.22" height="0.44"/><rect class="cls-88" y="54.15" width="70.22" height="0.44"/><rect class="cls-89" y="53.71" width="70.22" height="0.44"/><rect class="cls-90" y="53.27" width="70.22" height="0.44"/><rect class="cls-91" y="52.82" width="70.22" height="0.44"/><rect class="cls-92" y="52.38" width="70.22" height="0.44"/><rect class="cls-93" y="51.94" width="70.22" height="0.44"/><rect class="cls-94" y="51.5" width="70.22" height="0.44"/><rect class="cls-95" y="51.06" width="70.22" height="0.44"/><rect class="cls-96" y="50.62" width="70.22" height="0.44"/><rect class="cls-97" y="50.18" width="70.22" height="0.44"/><rect class="cls-98" y="49.74" width="70.22" height="0.44"/><rect class="cls-99" y="49.3" width="70.22" height="0.44"/><rect class="cls-100" y="48.86" width="70.22" height="0.44"/><rect class="cls-101" y="48.42" width="70.22" height="0.44"/><rect class="cls-102" y="47.98" width="70.22" height="0.44"/><rect class="cls-103" y="47.53" width="70.22" height="0.44"/><rect class="cls-104" y="47.09" width="70.22" height="0.44"/><rect class="cls-105" y="46.65" width="70.22" height="0.44"/><rect class="cls-106" y="46.21" width="70.22" height="0.44"/><rect class="cls-107" y="45.77" width="70.22" height="0.44"/><rect class="cls-108" y="45.33" width="70.22" height="0.44"/><rect class="cls-109" y="44.89" width="70.22" height="0.44"/><rect class="cls-110" y="44.45" width="70.22" height="0.44"/><rect class="cls-111" y="44.01" width="70.22" height="0.44"/><rect class="cls-112" y="43.57" width="70.22" height="0.44"/><rect class="cls-113" y="43.13" width="70.22" height="0.44"/><rect class="cls-114" y="42.69" width="70.22" height="0.44"/><rect class="cls-115" y="42.24" width="70.22" height="0.44"/><rect class="cls-116" y="41.8" width="70.22" height="0.44"/><rect class="cls-117" y="41.36" width="70.22" height="0.44"/><rect class="cls-118" y="40.92" width="70.22" height="0.44"/><rect class="cls-119" y="40.48" width="70.22" height="0.44"/><rect class="cls-120" y="40.04" width="70.22" height="0.44"/><rect class="cls-121" y="39.6" width="70.22" height="0.44"/><rect class="cls-122" y="39.16" width="70.22" height="0.44"/><rect class="cls-123" y="38.72" width="70.22" height="0.44"/><rect class="cls-124" y="38.28" width="70.22" height="0.44"/><rect class="cls-125" y="37.84" width="70.22" height="0.44"/><rect class="cls-126" y="37.4" width="70.22" height="0.44"/><rect class="cls-127" y="36.95" width="70.22" height="0.44"/><rect class="cls-128" y="36.51" width="70.22" height="0.44"/><rect class="cls-129" y="36.07" width="70.22" height="0.44"/><rect class="cls-130" y="35.63" width="70.22" height="0.44"/><rect class="cls-131" y="35.19" width="70.22" height="0.44"/><rect class="cls-132" y="34.75" width="70.22" height="0.44"/><rect class="cls-133" y="34.31" width="70.22" height="0.44"/><rect class="cls-134" y="33.87" width="70.22" height="0.44"/><rect class="cls-135" y="33.43" width="70.22" height="0.44"/><rect class="cls-136" y="32.99" width="70.22" height="0.44"/><rect class="cls-137" y="32.55" width="70.22" height="0.44"/><rect class="cls-138" y="32.1" width="70.22" height="0.44"/><rect class="cls-139" y="31.66" width="70.22" height="0.44"/><rect class="cls-140" y="31.22" width="70.22" height="0.44"/><rect class="cls-141" y="30.78" width="70.22" height="0.44"/><rect class="cls-142" y="30.34" width="70.22" height="0.44"/><rect class="cls-143" y="29.9" width="70.22" height="0.44"/><rect class="cls-144" y="29.46" width="70.22" height="0.44"/><rect class="cls-145" y="29.02" width="70.22" height="0.44"/><rect class="cls-146" y="28.58" width="70.22" height="0.44"/><rect class="cls-147" y="28.14" width="70.22" height="0.44"/><rect class="cls-148" y="27.7" width="70.22" height="0.44"/><rect class="cls-149" y="27.26" width="70.22" height="0.44"/><rect class="cls-150" y="26.81" width="70.22" height="0.44"/><rect class="cls-151" y="26.37" width="70.22" height="0.44"/><rect class="cls-152" y="25.93" width="70.22" height="0.44"/><rect class="cls-153" y="25.49" width="70.22" height="0.44"/><rect class="cls-154" y="25.05" width="70.22" height="0.44"/><rect class="cls-155" y="24.61" width="70.22" height="0.44"/><rect class="cls-156" y="24.17" width="70.22" height="0.44"/><rect class="cls-157" y="23.73" width="70.22" height="0.44"/><rect class="cls-158" y="23.29" width="70.22" height="0.44"/><rect class="cls-159" y="22.85" width="70.22" height="0.44"/><rect class="cls-160" y="22.41" width="70.22" height="0.44"/><rect class="cls-161" y="21.97" width="70.22" height="0.44"/><rect class="cls-162" y="21.52" width="70.22" height="0.44"/><rect class="cls-163" y="21.08" width="70.22" height="0.44"/><rect class="cls-164" y="20.64" width="70.22" height="0.44"/><rect class="cls-165" y="20.2" width="70.22" height="0.44"/><rect class="cls-166" y="19.76" width="70.22" height="0.44"/><rect class="cls-167" y="19.32" width="70.22" height="0.44"/><rect class="cls-168" y="18.88" width="70.22" height="0.44"/><rect class="cls-169" y="18.44" width="70.22" height="0.44"/><rect class="cls-170" y="18" width="70.22" height="0.44"/><rect class="cls-171" y="17.56" width="70.22" height="0.44"/><rect class="cls-172" y="17.12" width="70.22" height="0.44"/><rect class="cls-173" y="16.68" width="70.22" height="0.44"/><rect class="cls-174" y="16.23" width="70.22" height="0.44"/><rect class="cls-175" y="15.79" width="70.22" height="0.44"/><rect class="cls-176" y="15.35" width="70.22" height="0.44"/><rect class="cls-177" y="14.91" width="70.22" height="0.44"/><rect class="cls-178" y="14.47" width="70.22" height="0.44"/><rect class="cls-179" y="14.03" width="70.22" height="0.44"/><rect class="cls-180" y="13.59" width="70.22" height="0.44"/><rect class="cls-181" y="13.15" width="70.22" height="0.44"/><rect class="cls-182" y="12.71" width="70.22" height="0.44"/><rect class="cls-183" y="12.27" width="70.22" height="0.44"/><rect class="cls-184" y="11.83" width="70.22" height="0.44"/><rect class="cls-185" y="11.39" width="70.22" height="0.44"/><rect class="cls-186" y="10.94" width="70.22" height="0.44"/><rect class="cls-187" y="10.5" width="70.22" height="0.44"/><rect class="cls-188" y="10.06" width="70.22" height="0.44"/><rect class="cls-189" y="9.62" width="70.22" height="0.44"/><rect class="cls-190" y="9.18" width="70.22" height="0.44"/><rect class="cls-191" y="8.74" width="70.22" height="0.44"/><rect class="cls-192" y="8.3" width="70.22" height="0.44"/><rect class="cls-193" y="7.86" width="70.22" height="0.44"/><rect class="cls-194" y="7.42" width="70.22" height="0.44"/><rect class="cls-195" y="6.98" width="70.22" height="0.44"/><rect class="cls-196" y="6.54" width="70.22" height="0.44"/><rect class="cls-197" y="6.1" width="70.22" height="0.44"/><rect class="cls-198" y="5.65" width="70.22" height="0.44"/><rect class="cls-199" y="5.21" width="70.22" height="0.44"/><rect class="cls-200" y="4.77" width="70.22" height="0.44"/><rect class="cls-201" y="4.33" width="70.22" height="0.44"/><rect class="cls-202" y="3.89" width="70.22" height="0.44"/><rect class="cls-203" y="3.45" width="70.22" height="0.44"/><rect class="cls-204" y="3.01" width="70.22" height="0.44"/><rect class="cls-205" y="2.57" width="70.22" height="0.44"/><rect class="cls-206" y="2.13" width="70.22" height="0.44"/><rect class="cls-207" y="1.69" width="70.22" height="0.44"/><rect class="cls-208" y="1.25" width="70.22" height="0.44"/><rect class="cls-209" y="0.81" width="70.22" height="0.44"/><rect class="cls-210" y="0.36" width="70.22" height="0.44"/><rect class="cls-211" width="70.22" height="0.36"/></g><path class="cls-3" d="M101.52,38.07h49.54V51H117.71V61.93h30.47V74.47H117.71V86.31h34.22v13.93H101.52V38.07Z" transform="translate(-39.02 -7.52)"/><path class="cls-3" d="M169.49,79.34c0.35,7.31,4.88,9.67,11.75,9.67,4.88,0,9.93-1.74,9.93-6.36,0-5.48-8.88-6.53-17.85-9.06s-18.2-6.53-18.2-17.94c0-13.58,13.67-18.89,25.34-18.89,12.36,0,24.82,6,24.9,20H189.17c0.26-5.66-5-7.49-10-7.49-3.48,0-7.84,1.22-7.84,5.31,0,4.79,9,5.66,18,8.18s18,6.7,18,17.94c0,15.76-13.41,20.81-27.08,20.81-14.28,0-26.9-6.27-27-22.2h16.19Z" transform="translate(-39.02 -7.52)"/><path class="cls-3" d="M259.92,52H241.38v48.24H225.18V52H206.64V38.07h53.29V52Z" transform="translate(-39.02 -7.52)"/><path class="cls-3" d="M271.67,38.07h16.46l23.25,62.17H294.48L290.65,89.1H269L265,100.24H248.42Zm1,39h14.11l-6.88-21.77h-0.17Z" transform="translate(-39.02 -7.52)"/><path class="cls-3" d="M329.05,37.8h28.1q8.33,0,12.43,4.7t2.27,13.2a24,24,0,0,1-7.25,12.73q-5.72,5.42-15.16,5.42H329.81l-5.57,26.4h-8.46Zm31.16,8.63a16.66,16.66,0,0,0-7.44-1.32H335.94L331.35,66.7h16.83a18.72,18.72,0,0,0,9.76-2.42q4.06-2.42,5.38-8.53Q364.76,48.88,360.21,46.42Z" transform="translate(-39.02 -7.52)"/><path class="cls-3" d="M379.88,37.8h8.46l-11.69,55h31.63l-1.57,7.44H366.61Z" transform="translate(-39.02 -7.52)"/><path class="cls-3" d="M428.9,37.8l-8.2,38.6q-1.44,6.8.13,11.31,2.34,6.8,11.31,6.8,10.76,0,16.2-7.35a28,28,0,0,0,4.38-10.76l8.2-38.6h8.59L462,72.87q-2.42,11.52-6.84,17.73-8.12,11.31-23.93,11.31t-19-11.31q-1.78-6.21.64-17.73l7.48-35.07h8.59Z" transform="translate(-39.02 -7.52)"/><path class="cls-3" d="M472.67,80.09q-0.81,5.31.68,8.63,2.89,6.21,13.52,6.21a29,29,0,0,0,9-1.36q8.12-2.64,9.56-9.44,1.11-5.1-1.66-7.27t-9.31-3.7l-8.08-1.91q-7.87-1.87-10.84-4.12-5.1-3.91-3.44-11.69a23.06,23.06,0,0,1,8.76-13.82q7-5.4,17.64-5.4,9.82,0,15.67,4.74t3.63,15.16h-7.95q0.42-5-1.06-7.69-2.85-4.89-12.12-4.89-7.48,0-11.41,3.15A12.74,12.74,0,0,0,480.41,54q-1,4.59,2.38,6.72,2.21,1.36,10.63,3.4l8.33,2q6,1.45,8.93,4,5.06,4.38,3.27,12.71-2.21,10.37-10.71,14.84a39.18,39.18,0,0,1-18.49,4.46q-11.65,0-17-6t-3.06-16h7.95Z" transform="translate(-39.02 -7.52)"/><path class="cls-3" d="M545.85,49.6h-6.3V67h-3.32V49.6h-6.3V46.91h15.92V49.6ZM572.08,67h-3.32V50.23h-0.1L562.06,67H560l-6.59-16.8h-0.1V67H550V46.91h5.13l6,15.29L567,46.91h5.08V67Z" transform="translate(-39.02 -7.52)"/><polygon class="cls-3" points="39.92 92.73 16.89 30.38 0 30.38 21.29 92.73 39.92 92.73"/><path class="cls-3" d="M65.28,110.28L77,141.19l12.15-30.91h4.94v35.26H90.71V115.07h-0.1l-12,30.47H75.4L63.8,115.07H63.7v30.47H60.34V110.28h4.94Z" transform="translate(-39.02 -7.52)"/><path class="cls-3" d="M104.34,110.28v32.39h19.75v2.86H101V110.28h3.36Z" transform="translate(-39.02 -7.52)"/><path class="cls-3" d="M129.92,138.48a7.44,7.44,0,0,0,2.44,2.91,10.15,10.15,0,0,0,3.68,1.56,21,21,0,0,0,4.54.47,12.84,12.84,0,0,0,3-.4,10.49,10.49,0,0,0,3-1.26,7.74,7.74,0,0,0,2.35-2.22,5.63,5.63,0,0,0,.94-3.28,4.82,4.82,0,0,0-.67-2.57,6.11,6.11,0,0,0-1.73-1.83,10.12,10.12,0,0,0-2.35-1.21,22.91,22.91,0,0,0-2.52-.77L134.81,128a23.15,23.15,0,0,1-3-1,8.49,8.49,0,0,1-2.54-1.58,7.5,7.5,0,0,1-1.75-2.42,8.28,8.28,0,0,1-.67-3.51,11.18,11.18,0,0,1,.49-3,8.33,8.33,0,0,1,1.85-3.26,10.77,10.77,0,0,1,3.73-2.59,14.92,14.92,0,0,1,6.07-1.06,17.78,17.78,0,0,1,5,.69,12.26,12.26,0,0,1,4.15,2.08,10,10,0,0,1,3.9,8.2h-3.36a8.17,8.17,0,0,0-.91-3.53,7.9,7.9,0,0,0-2.12-2.52,9.28,9.28,0,0,0-3-1.53,12.23,12.23,0,0,0-3.58-.52,14.84,14.84,0,0,0-3.33.37,8.36,8.36,0,0,0-2.81,1.19,6.15,6.15,0,0,0-2,2.15,6.74,6.74,0,0,0-.74,3.31,5.11,5.11,0,0,0,.42,2.15,4.51,4.51,0,0,0,1.16,1.56,6.13,6.13,0,0,0,1.7,1,12.79,12.79,0,0,0,2,.64l8.59,2.12a24.86,24.86,0,0,1,3.53,1.21,11.69,11.69,0,0,1,2.91,1.78,7.5,7.5,0,0,1,2,2.59,8.69,8.69,0,0,1,.72,3.7,13.46,13.46,0,0,1-.12,1.58,8,8,0,0,1-.59,2.1,10.51,10.51,0,0,1-1.33,2.25,8.41,8.41,0,0,1-2.37,2,13.72,13.72,0,0,1-3.73,1.48,21.82,21.82,0,0,1-5.33.57,22.31,22.31,0,0,1-5.78-.72,12.44,12.44,0,0,1-4.54-2.2,9.66,9.66,0,0,1-2.89-3.8,12.47,12.47,0,0,1-.86-5.58h3.36A9.93,9.93,0,0,0,129.92,138.48Z" transform="translate(-39.02 -7.52)"/><path class="cls-3" d="M174.75,138.48a7.44,7.44,0,0,0,2.44,2.91,10.15,10.15,0,0,0,3.68,1.56,21,21,0,0,0,4.54.47,12.84,12.84,0,0,0,3-.4,10.49,10.49,0,0,0,3-1.26,7.74,7.74,0,0,0,2.35-2.22,5.63,5.63,0,0,0,.94-3.28,4.82,4.82,0,0,0-.67-2.57,6.11,6.11,0,0,0-1.73-1.83,10.12,10.12,0,0,0-2.35-1.21,22.91,22.91,0,0,0-2.52-.77L179.64,128a23.15,23.15,0,0,1-3-1,8.49,8.49,0,0,1-2.54-1.58,7.5,7.5,0,0,1-1.75-2.42,8.28,8.28,0,0,1-.67-3.51,11.18,11.18,0,0,1,.49-3,8.33,8.33,0,0,1,1.85-3.26,10.77,10.77,0,0,1,3.73-2.59,14.92,14.92,0,0,1,6.07-1.06,17.78,17.78,0,0,1,5,.69,12.26,12.26,0,0,1,4.15,2.08,10,10,0,0,1,3.9,8.2h-3.36a8.17,8.17,0,0,0-.91-3.53,7.9,7.9,0,0,0-2.12-2.52,9.28,9.28,0,0,0-3-1.53,12.23,12.23,0,0,0-3.58-.52,14.84,14.84,0,0,0-3.33.37,8.36,8.36,0,0,0-2.81,1.19,6.15,6.15,0,0,0-2,2.15,6.74,6.74,0,0,0-.74,3.31,5.11,5.11,0,0,0,.42,2.15,4.51,4.51,0,0,0,1.16,1.56,6.13,6.13,0,0,0,1.7,1,12.79,12.79,0,0,0,2,.64l8.59,2.12a24.86,24.86,0,0,1,3.53,1.21,11.69,11.69,0,0,1,2.91,1.78,7.5,7.5,0,0,1,2,2.59,8.69,8.69,0,0,1,.72,3.7,13.46,13.46,0,0,1-.12,1.58,8,8,0,0,1-.59,2.1,10.51,10.51,0,0,1-1.33,2.25,8.41,8.41,0,0,1-2.37,2,13.72,13.72,0,0,1-3.73,1.48,21.82,21.82,0,0,1-5.33.57,22.31,22.31,0,0,1-5.78-.72,12.44,12.44,0,0,1-4.54-2.2,9.66,9.66,0,0,1-2.89-3.8,12.47,12.47,0,0,1-.86-5.58h3.36A9.93,9.93,0,0,0,174.75,138.48Z" transform="translate(-39.02 -7.52)"/><path class="cls-3" d="M218.78,120.4a11.27,11.27,0,0,1,3.78,2.91,12.62,12.62,0,0,1,2.32,4.27,17.55,17.55,0,0,1,0,10.42,12.6,12.6,0,0,1-2.32,4.27,11,11,0,0,1-3.78,2.89,13.08,13.08,0,0,1-10.32,0,11,11,0,0,1-3.78-2.89,12.6,12.6,0,0,1-2.32-4.27,17.59,17.59,0,0,1,0-10.42,12.62,12.62,0,0,1,2.32-4.27,11.27,11.27,0,0,1,3.78-2.91A12.8,12.8,0,0,1,218.78,120.4Zm-9.06,2.47a8.55,8.55,0,0,0-2.79,2.47,11.22,11.22,0,0,0-1.68,3.48,14.21,14.21,0,0,0,0,7.95,11.22,11.22,0,0,0,1.68,3.48,8.55,8.55,0,0,0,2.79,2.47,8.57,8.57,0,0,0,7.8,0,8.55,8.55,0,0,0,2.79-2.47,11.22,11.22,0,0,0,1.68-3.48,14.21,14.21,0,0,0,0-7.95,11.22,11.22,0,0,0-1.68-3.48,8.55,8.55,0,0,0-2.79-2.47A8.57,8.57,0,0,0,209.72,122.87Z" transform="translate(-39.02 -7.52)"/><path class="cls-3" d="M235.09,122.67v22.86H232V122.67h-4.35v-2.62H232v-2.32a17.25,17.25,0,0,1,.25-3,5.9,5.9,0,0,1,.94-2.37,4.52,4.52,0,0,1,1.9-1.53,7.58,7.58,0,0,1,3.09-.54c0.46,0,.89,0,1.28,0s0.84,0.08,1.33.15v2.67l-1.18-.17a8.3,8.3,0,0,0-1.09-.07,4,4,0,0,0-2,.4,2.41,2.41,0,0,0-1,1.06,4.06,4.06,0,0,0-.37,1.55q-0.05.89,0,1.93v2.22h5v2.62h-5Z" transform="translate(-39.02 -7.52)"/><path class="cls-3" d="M253.22,120.06v2.62H248v17.18a5.55,5.55,0,0,0,.42,2.39,2.27,2.27,0,0,0,2.1,1,24.35,24.35,0,0,0,2.67-.15v2.62c-0.46,0-.92,0-1.38,0s-0.92,0-1.38,0q-3.11,0-4.35-1.21t-1.18-4.47V122.67h-4.44v-2.62h4.44V112.4H248v7.65h5.19Z" transform="translate(-39.02 -7.52)"/><path class="cls-3" d="M258.45,120.06L265,141.88h0.1l6.22-21.83h3.51L281,141.88h0.1l6.52-21.83h3.31l-8.2,25.48h-3.41l-6.27-21.43H273l-6.22,21.43h-3.41l-8.2-25.48h3.31Z" transform="translate(-39.02 -7.52)"/><path class="cls-3" d="M294.94,124a7.29,7.29,0,0,1,2.15-2.67,9.07,9.07,0,0,1,3.19-1.53,15.56,15.56,0,0,1,4-.49,17.88,17.88,0,0,1,3.36.32,8.13,8.13,0,0,1,3,1.21,6.59,6.59,0,0,1,2.17,2.49,9,9,0,0,1,.84,4.17V141a1.64,1.64,0,0,0,1.83,1.88,2.4,2.4,0,0,0,1-.2v2.62c-0.36.07-.68,0.12-1,0.15a9.14,9.14,0,0,1-1.06,0,4.67,4.67,0,0,1-1.9-.32,2.54,2.54,0,0,1-1.11-.91,3.42,3.42,0,0,1-.52-1.41,11.86,11.86,0,0,1-.12-1.8h-0.1a20.77,20.77,0,0,1-1.7,2.2,8.43,8.43,0,0,1-1.93,1.61,8.86,8.86,0,0,1-2.42,1,13.28,13.28,0,0,1-3.23.35,12.77,12.77,0,0,1-3.33-.42,7.44,7.44,0,0,1-2.71-1.33,6.34,6.34,0,0,1-1.83-2.32,7.71,7.71,0,0,1-.67-3.33,6.6,6.6,0,0,1,1.18-4.17,7.47,7.47,0,0,1,3.14-2.3,18,18,0,0,1,4.39-1.11q2.44-.32,5-0.62c0.66-.07,1.23-0.15,1.73-0.25a3,3,0,0,0,1.23-.52,2.38,2.38,0,0,0,.77-1,4.34,4.34,0,0,0,.27-1.68,5.68,5.68,0,0,0-.52-2.59,4.1,4.1,0,0,0-1.43-1.61,5.84,5.84,0,0,0-2.12-.81,14.4,14.4,0,0,0-2.59-.22,7.85,7.85,0,0,0-4.84,1.41,5.51,5.51,0,0,0-2,4.52H294A10.31,10.31,0,0,1,294.94,124Zm15.55,7.6a1.78,1.78,0,0,1-1.14.79,11.39,11.39,0,0,1-1.48.35q-2,.35-4.07.62a22.45,22.45,0,0,0-3.83.81,7.49,7.49,0,0,0-2.84,1.56,3.71,3.71,0,0,0-1.11,2.89,4.54,4.54,0,0,0,.47,2.1,5.11,5.11,0,0,0,1.26,1.58,5.52,5.52,0,0,0,1.83,1,6.71,6.71,0,0,0,2.12.35,10.72,10.72,0,0,0,3.41-.54,8.42,8.42,0,0,0,2.84-1.58,7.72,7.72,0,0,0,1.93-2.52,7.62,7.62,0,0,0,.72-3.36v-4h-0.1Z" transform="translate(-39.02 -7.52)"/><path class="cls-3" d="M322.79,120.06v6h0.1a9.78,9.78,0,0,1,3.68-4.79,9.63,9.63,0,0,1,6-1.53v3.11a9.37,9.37,0,0,0-3.85.57,8.69,8.69,0,0,0-3,1.9,8.57,8.57,0,0,0-1.95,2.94A9.82,9.82,0,0,0,323,132v13.58h-3.11V120.06h2.86Z" transform="translate(-39.02 -7.52)"/><path class="cls-3" d="M336.89,137.12a9.54,9.54,0,0,0,1.51,3.23,8.6,8.6,0,0,0,2.62,2.37,7.32,7.32,0,0,0,3.8.94,7.56,7.56,0,0,0,5.33-1.78,9.35,9.35,0,0,0,2.67-4.74h3.11a12.43,12.43,0,0,1-3.63,6.72q-2.64,2.37-7.48,2.37a11.88,11.88,0,0,1-5.21-1.06,9.6,9.6,0,0,1-3.58-2.91,12.71,12.71,0,0,1-2-4.3,19.57,19.57,0,0,1-.67-5.16,18.53,18.53,0,0,1,.67-4.94,13.28,13.28,0,0,1,2-4.32,10.27,10.27,0,0,1,3.58-3.06,11,11,0,0,1,5.21-1.16,10.08,10.08,0,0,1,8.76,4.47,13.43,13.43,0,0,1,1.95,4.59,20.14,20.14,0,0,1,.49,5.26h-19.6A13.75,13.75,0,0,0,336.89,137.12Zm15.41-9.51a9.3,9.3,0,0,0-1.61-2.89,8,8,0,0,0-2.52-2,7.22,7.22,0,0,0-3.36-.77,7.33,7.33,0,0,0-3.41.77,8,8,0,0,0-2.52,2,10.09,10.09,0,0,0-1.65,2.91,14.28,14.28,0,0,0-.81,3.38h16.49A11.31,11.31,0,0,0,352.3,127.61Z" transform="translate(-39.02 -7.52)"/><path class="cls-3" d="M377,138.48a7.44,7.44,0,0,0,2.44,2.91,10.15,10.15,0,0,0,3.68,1.56,21,21,0,0,0,4.54.47,12.84,12.84,0,0,0,3-.4,10.49,10.49,0,0,0,3-1.26,7.74,7.74,0,0,0,2.35-2.22,5.63,5.63,0,0,0,.94-3.28,4.82,4.82,0,0,0-.67-2.57,6.11,6.11,0,0,0-1.73-1.83,10.12,10.12,0,0,0-2.35-1.21,22.91,22.91,0,0,0-2.52-.77L381.85,128a23.15,23.15,0,0,1-3-1,8.49,8.49,0,0,1-2.54-1.58,7.5,7.5,0,0,1-1.75-2.42,8.28,8.28,0,0,1-.67-3.51,11.18,11.18,0,0,1,.49-3,8.33,8.33,0,0,1,1.85-3.26A10.77,10.77,0,0,1,380,110.6a14.92,14.92,0,0,1,6.07-1.06,17.78,17.78,0,0,1,5,.69,12.26,12.26,0,0,1,4.15,2.08,10,10,0,0,1,3.9,8.2h-3.36a8.17,8.17,0,0,0-.91-3.53,7.9,7.9,0,0,0-2.12-2.52,9.28,9.28,0,0,0-3-1.53,12.23,12.23,0,0,0-3.58-.52,14.84,14.84,0,0,0-3.33.37,8.36,8.36,0,0,0-2.81,1.19,6.15,6.15,0,0,0-2,2.15,6.74,6.74,0,0,0-.74,3.31,5.11,5.11,0,0,0,.42,2.15,4.51,4.51,0,0,0,1.16,1.56,6.13,6.13,0,0,0,1.7,1,12.79,12.79,0,0,0,2,.64l8.59,2.12a24.86,24.86,0,0,1,3.53,1.21,11.69,11.69,0,0,1,2.91,1.78,7.5,7.5,0,0,1,2,2.59,8.69,8.69,0,0,1,.72,3.7,13.46,13.46,0,0,1-.12,1.58,8,8,0,0,1-.59,2.1,10.51,10.51,0,0,1-1.33,2.25,8.41,8.41,0,0,1-2.37,2,13.72,13.72,0,0,1-3.73,1.48,21.82,21.82,0,0,1-5.33.57,22.31,22.31,0,0,1-5.78-.72,12.44,12.44,0,0,1-4.54-2.2,9.66,9.66,0,0,1-2.89-3.8,12.47,12.47,0,0,1-.86-5.58h3.36A9.93,9.93,0,0,0,377,138.48Z" transform="translate(-39.02 -7.52)"/><path class="cls-3" d="M421,120.4a11.27,11.27,0,0,1,3.78,2.91,12.62,12.62,0,0,1,2.32,4.27,17.55,17.55,0,0,1,0,10.42,12.6,12.6,0,0,1-2.32,4.27,11,11,0,0,1-3.78,2.89,13.08,13.08,0,0,1-10.32,0,11,11,0,0,1-3.78-2.89,12.6,12.6,0,0,1-2.32-4.27,17.59,17.59,0,0,1,0-10.42,12.62,12.62,0,0,1,2.32-4.27,11.27,11.27,0,0,1,3.78-2.91A12.8,12.8,0,0,1,421,120.4Zm-9.06,2.47a8.55,8.55,0,0,0-2.79,2.47,11.22,11.22,0,0,0-1.68,3.48,14.21,14.21,0,0,0,0,7.95,11.22,11.22,0,0,0,1.68,3.48,8.55,8.55,0,0,0,2.79,2.47,8.57,8.57,0,0,0,7.8,0,8.55,8.55,0,0,0,2.79-2.47,11.22,11.22,0,0,0,1.68-3.48,14.21,14.21,0,0,0,0-7.95,11.22,11.22,0,0,0-1.68-3.48,8.55,8.55,0,0,0-2.79-2.47A8.57,8.57,0,0,0,411.92,122.87Z" transform="translate(-39.02 -7.52)"/><path class="cls-3" d="M435.67,110.28v35.26h-3.11V110.28h3.11Z" transform="translate(-39.02 -7.52)"/><path class="cls-3" d="M459.42,145.54v-4.59h-0.1a8.82,8.82,0,0,1-3.58,3.92,10.21,10.21,0,0,1-5.21,1.36,11.3,11.3,0,0,1-4.12-.67,6.86,6.86,0,0,1-2.77-1.9,7.7,7.7,0,0,1-1.55-3,15.15,15.15,0,0,1-.49-4.05V120.06h3.11v16.59a8.31,8.31,0,0,0,1.6,5.24q1.51,1.78,5.21,1.78a6.56,6.56,0,0,0,3.46-.86,7.33,7.33,0,0,0,2.37-2.3,10.31,10.31,0,0,0,1.38-3.28,16.16,16.16,0,0,0,.44-3.78V120.06h3.11v25.48h-2.86Z" transform="translate(-39.02 -7.52)"/><path class="cls-3" d="M478.28,120.06v2.62H473.1v17.18a5.55,5.55,0,0,0,.42,2.39,2.27,2.27,0,0,0,2.1,1,24.35,24.35,0,0,0,2.67-.15v2.62c-0.46,0-.92,0-1.38,0s-0.92,0-1.38,0q-3.11,0-4.35-1.21T470,140.11V122.67h-4.44v-2.62H470V112.4h3.11v7.65h5.19Z" transform="translate(-39.02 -7.52)"/><path class="cls-3" d="M485.93,110.28v5h-3.11v-5h3.11Zm0,9.78v25.48h-3.11V120.06h3.11Z" transform="translate(-39.02 -7.52)"/><path class="cls-3" d="M507.83,120.4a11.27,11.27,0,0,1,3.78,2.91,12.62,12.62,0,0,1,2.32,4.27,17.55,17.55,0,0,1,0,10.42,12.6,12.6,0,0,1-2.32,4.27,11,11,0,0,1-3.78,2.89,13.08,13.08,0,0,1-10.32,0,11,11,0,0,1-3.78-2.89,12.6,12.6,0,0,1-2.32-4.27,17.59,17.59,0,0,1,0-10.42,12.62,12.62,0,0,1,2.32-4.27,11.27,11.27,0,0,1,3.78-2.91A12.8,12.8,0,0,1,507.83,120.4Zm-9.06,2.47a8.55,8.55,0,0,0-2.79,2.47,11.22,11.22,0,0,0-1.68,3.48,14.21,14.21,0,0,0,0,7.95,11.22,11.22,0,0,0,1.68,3.48,8.55,8.55,0,0,0,2.79,2.47,8.57,8.57,0,0,0,7.8,0,8.55,8.55,0,0,0,2.79-2.47,11.22,11.22,0,0,0,1.68-3.48,14.21,14.21,0,0,0,0-7.95,11.22,11.22,0,0,0-1.68-3.48,8.55,8.55,0,0,0-2.79-2.47A8.57,8.57,0,0,0,498.77,122.87Z" transform="translate(-39.02 -7.52)"/><path class="cls-3" d="M522.43,120.06v4.39h0.1a7.46,7.46,0,0,1,3.16-3.73,9.27,9.27,0,0,1,5-1.41,12.56,12.56,0,0,1,4.47.69,7.07,7.07,0,0,1,2.89,2,7.27,7.27,0,0,1,1.53,3.09,17.31,17.31,0,0,1,.45,4.1v16.39h-3.11v-15.9a14.74,14.74,0,0,0-.3-3,6.44,6.44,0,0,0-1-2.44,5,5,0,0,0-2-1.63,7.35,7.35,0,0,0-3.14-.59,7.91,7.91,0,0,0-3.33.67,7.22,7.22,0,0,0-2.47,1.83,8.41,8.41,0,0,0-1.58,2.76,11.22,11.22,0,0,0-.62,3.48v14.86h-3.11V120.06h3.11Z" transform="translate(-39.02 -7.52)"/><path class="cls-3" d="M560.55,125a5,5,0,0,0-1.46-1.75,6.06,6.06,0,0,0-2.1-1,9.62,9.62,0,0,0-2.52-.32,10.25,10.25,0,0,0-2.1.22,6.51,6.51,0,0,0-1.95.74,4.19,4.19,0,0,0-1.43,1.36,3.74,3.74,0,0,0-.54,2.07,2.91,2.91,0,0,0,.52,1.75,4.64,4.64,0,0,0,1.31,1.21,8.3,8.3,0,0,0,1.73.81c0.63,0.21,1.2.39,1.73,0.52l4.15,0.94a11.89,11.89,0,0,1,2.64.72,8.53,8.53,0,0,1,2.32,1.36,6.66,6.66,0,0,1,1.65,2.07,6.25,6.25,0,0,1,.64,2.91,6.39,6.39,0,0,1-.94,3.53,7.66,7.66,0,0,1-2.39,2.37,10.18,10.18,0,0,1-3.28,1.31,17,17,0,0,1-3.61.4,11.7,11.7,0,0,1-7.28-2.12q-2.79-2.12-3.19-6.81h3.11a6.14,6.14,0,0,0,2.3,4.76,8.32,8.32,0,0,0,5.21,1.61,11.66,11.66,0,0,0,2.35-.25,7.59,7.59,0,0,0,2.25-.84,5.37,5.37,0,0,0,1.7-1.51,3.7,3.7,0,0,0,.67-2.25,3.57,3.57,0,0,0-.47-1.9,4.1,4.1,0,0,0-1.26-1.28,8,8,0,0,0-1.8-.86q-1-.34-2-0.59l-4-.89a22.61,22.61,0,0,1-2.81-.91,9,9,0,0,1-2.25-1.28,5.4,5.4,0,0,1-1.51-1.88,6.22,6.22,0,0,1-.54-2.74,6.11,6.11,0,0,1,.86-3.31,6.73,6.73,0,0,1,2.25-2.22,10.45,10.45,0,0,1,3.09-1.23,14.91,14.91,0,0,1,3.38-.4,12.54,12.54,0,0,1,3.58.49,8.2,8.2,0,0,1,2.91,1.53,7.51,7.51,0,0,1,2,2.57,9.24,9.24,0,0,1,.84,3.61h-3.11A5.84,5.84,0,0,0,560.55,125Z" transform="translate(-39.02 -7.52)"/></svg>